<svg xmlns="http://www.w3.org/2000/svg" viewBox="0 0 902.32 532.41"><defs><style>.cls-1{fill:#fff;}</style></defs><g id="Layer_2" data-name="Layer 2"><g id="Layer_2-2" data-name="Layer 2"><path class="cls-1" d="M784.47,246a104.41,104.41,0,0,0-29.32-38.08,99.16,99.16,0,0,0-28.29-15.58q-15.63-5.58-43.92-10.29,20.64-7.35,31.54-13.38a78.71,78.71,0,0,0,19.45-15.15q23.87-24.7,23.87-63.21,0-23.84-10.46-42.93a81.88,81.88,0,0,0-29.62-30.88Q695.63,3.24,662,.59,652.87,0,623.42,0H463.24s4.16,8.38,11.15,22.42c.47.45.92.92,1.37,1.4a47.56,47.56,0,0,1,12.67,23.81c.34,1.49.65,3.1.93,4.84,26.48,53.1,67.69,135.66,97.69,195.23V192.89H609q56.58,0,83.11,21.76,14.43,11.78,23,33.68a129.19,129.19,0,0,1,8.56,47.48q0,44.7-27.56,70.57a87.13,87.13,0,0,1-8.48,7v26.54a230,230,0,0,0,25.27-3.26q24-4.71,41.41-16.77a91.83,91.83,0,0,0,29.92-35.72q10.74-22.2,10.76-48.95A116.73,116.73,0,0,0,784.47,246ZM657.6,167a68.67,68.67,0,0,1-17.53,8.82,151.86,151.86,0,0,1-25.21,5.59,271,271,0,0,1-27.81,2.25V9.14c-1.12,0-2.26,0-3.42,0h3.42v0q29,.16,43.58,3.5a67.25,67.25,0,0,1,27.55,13.24Q672,37.06,680.44,57.19a109.51,109.51,0,0,1,8.4,42.49,90.91,90.91,0,0,1-8.11,38.67A73.59,73.59,0,0,1,657.6,167Z"/><path class="cls-1" d="M599.12,305.89C566.3,242.23,445.78,0,445.78,0H338.72L181.63,326.93s-18.3,52.87-74.25,45.32v29.12H278.83l-.72-27s-66.71,3.6-47.7-59.34S362,30.21,362,30.21s36.41,18.61,47.7,67.71,5.92,96.29,6.73,116,6.18,51,27.43,77.68c0,0-23.94-9.71-40.08-51.25s5.92-75.26-1.34-128.13c0,0-5.65-24.28-15.6-39.11s-14.53-8.9-17.76-5.4-14.79,26.71-14.79,51.53c0,0-7,13.75-16.95-5.94,0,0-.27,13.76,14.52,18.61,5.65,1.89-10.48,18.09-36.58,32.37-9.68,4.32-8.07,11.06.54,20.5s11.3,22.12,5.65,22.66-11.83,9.44-4.57,14.57,2.42,5.66,0,7.28-6.46,3.77,2.15,10.25c5.65,4.05.8,11.6-2.42,31.83s9.95,34.53,35.5,36.42,54.61-9.72,75.86,32.1-22,42.34-33.62,30.75v30.74H670.13V355.79S631.94,369.55,599.12,305.89Zm-149-42.62c-12.91-46.4,4.3-69.65-6.45-136,0,0,16.05,27.54,18.14,48.66s-5.23,83.52,7.68,104.56c3.84,6.56,14.52,32.9,28,45.85C496.89,326.12,462.9,309.3,450.09,263.27Z"/><path class="cls-1" d="M0,531.77l25.76-60.45h.56L52,531.77H41.39L23.21,485.83l6.7-4.38L9.17,531.77Zm16.27-21.53H36.05l3.19,7.81H13.4Z"/><path class="cls-1" d="M109.5,527.22a21.18,21.18,0,0,1-3.75,2.2,33.76,33.76,0,0,1-6,2.15,28.17,28.17,0,0,1-7.69.84A31.32,31.32,0,0,1,79.87,530a27.71,27.71,0,0,1-9.17-6.38,28.25,28.25,0,0,1-5.82-9.26,30.48,30.48,0,0,1-2-11.2,34,34,0,0,1,2.07-12,27.93,27.93,0,0,1,5.9-9.58,26.92,26.92,0,0,1,9.09-6.26,29.5,29.5,0,0,1,11.57-2.23,30.14,30.14,0,0,1,9.77,1.48,32.42,32.42,0,0,1,7.29,3.39l-3.66,8.69a28,28,0,0,0-5.59-3.15A18.66,18.66,0,0,0,91.72,482a17.57,17.57,0,0,0-7.3,1.56A19.18,19.18,0,0,0,78.28,488a21.31,21.31,0,0,0-4.23,6.62,21,21,0,0,0-1.55,8.09A24.31,24.31,0,0,0,73.89,511a19.21,19.21,0,0,0,4,6.66A17.81,17.81,0,0,0,84.06,522a22.85,22.85,0,0,0,16.07.12,20.45,20.45,0,0,0,5.46-3.15Z"/><path class="cls-1" d="M139.25,496l-.24,2.87,1.36-1.83,21.77-23.37h12l-24,25.36L175,531.77H163.17L143.32,505l-4.07,3.91v22.89h-9.41V473.71h9.41Z"/><path class="cls-1" d="M192.76,473.71h9.33v49.13h28.64v8.93h-38Z"/><path class="cls-1" d="M244.84,531.77l25.76-60.45h.56l25.68,60.45H286.23l-18.18-45.94,6.7-4.38L254,531.77Zm16.27-21.53h19.78l3.19,7.81H258.24Z"/><path class="cls-1" d="M314.7,531.77V471.64h.08l31.27,44.26-4-.88,31.1-43.38h.16v60.13h-9.25V492.61l.56,4.71-21,29.75h-.16l-21.37-29.75,1.6-4.31v38.76Z"/><path class="cls-1" d="M446.62,473.71q8.85,0,14,3.59t5.15,11a14.85,14.85,0,0,1-2.32,8.42,15,15,0,0,1-6.34,5.34,23.09,23.09,0,0,1-9.45,2l-1.35-4.87a32,32,0,0,1,11.36,2,19.6,19.6,0,0,1,8,5.51,12.74,12.74,0,0,1,3,8.49A16,16,0,0,1,467,522.8a14.71,14.71,0,0,1-4.46,5.14,19,19,0,0,1-6.34,2.91,28.88,28.88,0,0,1-7.22.92H430.74V473.71Zm1.51,24.72c2.76,0,4.8-.81,6.1-2.43a9,9,0,0,0,1.95-5.78,6.69,6.69,0,0,0-2.47-5.7,10.81,10.81,0,0,0-6.7-1.88h-6.93v15.79Zm.32,24.73a15.26,15.26,0,0,0,5.34-.88,8.71,8.71,0,0,0,3.83-2.63,6.82,6.82,0,0,0,1.44-4.47,6.33,6.33,0,0,0-1.68-4.7,9.4,9.4,0,0,0-4.23-2.4,20,20,0,0,0-5.34-.71h-7.73v15.79Z"/><path class="cls-1" d="M489,473.71h38.53v8.93H498.3v15.47h26v8.94h-26v15.79h30.3v8.93H489Z"/><path class="cls-1" d="M549.42,473.71h9.33v49.13h28.63v8.93h-38Z"/><path class="cls-1" d="M607.64,473.71H617v49.13H645.6v8.93h-38Z"/><path class="cls-1" d="M665.85,473.71h38.53v8.93H675.19v15.47h26v8.94h-26v15.79h30.3v8.93H665.85Z"/><path class="cls-1" d="M722.16,531.77c.37-.48,1.1-1.54,2.19-3.19s2.41-3.66,3.95-6,3.26-5,5.14-7.9l5.75-8.81q2.91-4.47,5.7-8.81t5.14-7.9l4-5.94c1.06-1.59,1.78-2.63,2.15-3.11l1.12,2.55H732.93a8.93,8.93,0,0,1-3.31-.64,6.6,6.6,0,0,1-2.68-1.83,4.14,4.14,0,0,1-1-2.79v-6.54h8.53v1c0,1.06.19,1.63.56,1.71a10.36,10.36,0,0,0,1.91.12h33.74L737.39,524l-.48-1.11h34.3v8.93Z"/><path class="cls-1" d="M787.24,531.77c.37-.48,1.1-1.54,2.19-3.19s2.41-3.66,4-6,3.26-5,5.14-7.9l5.75-8.81c1.93-3,3.84-5.91,5.7-8.81s3.57-5.53,5.14-7.9,2.88-4.35,3.95-5.94,1.78-2.63,2.15-3.11l1.12,2.55H798a9,9,0,0,1-3.31-.64,6.57,6.57,0,0,1-2.67-1.83,4.14,4.14,0,0,1-1-2.79v-6.54h8.53v1c0,1.06.18,1.63.56,1.71a10.36,10.36,0,0,0,1.91.12h33.74L802.47,524l-.48-1.11h34.3v8.93Z"/><path class="cls-1" d="M850.32,531.77l25.76-60.45h.56l25.68,60.45H891.71l-18.18-45.94,6.7-4.38-20.74,50.32Zm16.27-21.53h19.78l3.19,7.81H863.72Z"/></g></g></svg>