<svg xmlns="http://www.w3.org/2000/svg" xmlns:xlink="http://www.w3.org/1999/xlink" viewBox="0 0 1292.36 1292.36"><defs><style>.cls-1{fill:#fff;}.cls-2{fill:none;}.cls-3{clip-path:url(#clip-path);}.cls-4{isolation:isolate;}</style><clipPath id="clip-path"><path class="cls-1" d="M1056.11,541.94c-23.8-64.67-71-132.4-166.12-183.84S676.21,311.68,672.9,311.68H276.36v10.67s49.44,1.57,76.62,19A77,77,0,0,1,386,384.23a204.2,204.2,0,0,1,6.3,44.61c0,21,.69,45.11.69,56.11V803.68S397,867.08,372,897s-67.37,36.12-95.63,36.12V943.8H695.84s159.29,2.26,237.81-45.14,97.87-86.74,122.46-142.12S1079.87,606.61,1056.11,541.94ZM514.66,325.89H593a213.53,213.53,0,0,0-78.3,53.05ZM757.59,903c-46.22,36.28-111.29,27.12-123.86,27.12s-59.58-6.24-90.28-35.26S514.82,792,514.82,792V583.3c41.47,35.75,71.6,45.63,149.77,80.11S760,717.74,760,717.74C808,768,801.19,818.46,801.19,818.46s2.5,48.25-43.83,84.53ZM913.43,776a154.64,154.64,0,0,0-36.77-113.66c-38.18-46-113.09-77.7-180.55-102.42s-91.53-45.31-91.53-45.31-63.49-41-46-107.68,91.92-78.42,91.92-78.42c47.21.65,121.79,26.52,162.83,59.48s103.57,93,122.32,202.33S913.27,776,913.27,776Z"/></clipPath></defs><g id="Layer_2" data-name="Layer 2"><g id="Layer_2-2" data-name="Layer 2"><g id="Layer_2-3" data-name="Layer 2"><g id="Layer_3" data-name="Layer 3"><rect class="cls-2" width="1292.36" height="1292.36"/><path class="cls-1" d="M1056.11,541.94c-23.8-64.67-71-132.4-166.12-183.84S676.21,311.68,672.9,311.68H276.36v10.67s49.44,1.57,76.62,19A77,77,0,0,1,386,384.23a204.2,204.2,0,0,1,6.3,44.61c0,21,.69,45.11.69,56.11V803.68S397,867.08,372,897s-67.37,36.12-95.63,36.12V943.8H695.84s159.29,2.26,237.81-45.14,97.87-86.74,122.46-142.12S1079.87,606.61,1056.11,541.94ZM514.66,325.89H593a213.53,213.53,0,0,0-78.3,53.05ZM757.59,903c-46.22,36.28-111.29,27.12-123.86,27.12s-59.58-6.24-90.28-35.26S514.82,792,514.82,792V583.3c41.47,35.75,71.6,45.63,149.77,80.11S760,717.74,760,717.74C808,768,801.19,818.46,801.19,818.46s2.5,48.25-43.83,84.53ZM913.43,776a154.64,154.64,0,0,0-36.77-113.66c-38.18-46-113.09-77.7-180.55-102.42s-91.53-45.31-91.53-45.31-63.49-41-46-107.68,91.92-78.42,91.92-78.42c47.21.65,121.79,26.52,162.83,59.48s103.57,93,122.32,202.33S913.27,776,913.27,776Z"/></g></g></g></g></svg>