<svg xmlns="http://www.w3.org/2000/svg" viewBox="0 0 1292.36 1292.36"><defs><style>.cls-1{fill:#fff;}.cls-2{fill:none;}</style></defs><g id="Layer_2" data-name="Layer 2"><g id="Layer_2-2" data-name="Layer 2"><path class="cls-1" d="M7531.35,357.37l-.06.51a3.81,3.81,0,0,0,6.78,2.76h0a2.09,2.09,0,0,0,.14-.17l89.06-100.56a3.81,3.81,0,0,1,2.85-1.29h60.32a3.81,3.81,0,0,1,2.8,6.39l-106.31,115.4a3.81,3.81,0,0,0-.25,4.87l108.24,144.08a3.81,3.81,0,0,1-3,6.09h-59.64a3.81,3.81,0,0,1-3.09-1.58L7547.53,421a3.81,3.81,0,0,0-5.78-.46l-9.27,9.26a3.85,3.85,0,0,0-1.11,2.7v99.17a3.8,3.8,0,0,1-3.81,3.81h-47.67a3.8,3.8,0,0,1-3.81-3.81V262.43a3.81,3.81,0,0,1,3.81-3.81h47.67a3.81,3.81,0,0,1,3.81,3.81V357C7531.37,357.1,7531.36,357.24,7531.35,357.37Z" transform="translate(-7476.08 204.27)"/><path class="cls-1" d="M7793.91,540q-23,0-41.56-9.21t-29.53-28.4q-10.92-19.19-10.91-48.89,0-27.84,11.29-48.15t29.71-31.4a74.57,74.57,0,0,1,39.12-11.1q24.44,0,37,8.09a93.12,93.12,0,0,1,20.17,17,1.89,1.89,0,0,1,.35,1.85l-1.9,5.37,4.59-22.58a1.86,1.86,0,0,1,1.83-1.49h45.5a1.87,1.87,0,0,1,1.87,1.86V533.58a1.87,1.87,0,0,1-1.87,1.87h-48.92a1.87,1.87,0,0,1-1.87-1.87V510.25a1.87,1.87,0,0,1,3.63-.64h0a1.88,1.88,0,0,1-.53,2.05,41.32,41.32,0,0,0-3.48,3.67,85.57,85.57,0,0,1-11.09,10.15,72.26,72.26,0,0,1-18.05,10.16Q7808.57,540,7793.91,540Zm15-42.87a48,48,0,0,0,16.93-2.82A37.94,37.94,0,0,0,7839,486a49.58,49.58,0,0,0,9.57-13.31,1.9,1.9,0,0,0,.21-.88V432.37a2,2,0,0,0-.12-.69,37,37,0,0,0-8.91-13.77,42.16,42.16,0,0,0-14.29-9,50.81,50.81,0,0,0-18.43-3.2,39.4,39.4,0,0,0-20.87,5.83,42.42,42.42,0,0,0-15.24,16,50.33,50.33,0,0,0,.38,47,45,45,0,0,0,16,16.55A41.14,41.14,0,0,0,7809,497.09Z" transform="translate(-7476.08 204.27)"/><path class="cls-1" d="M8001.82,371.09a1.83,1.83,0,0,1,1.81,1.57l3.92,27.39-.49-1.45a1.88,1.88,0,0,1,.17-1.55,74.25,74.25,0,0,1,24-25q14.67-9.22,35.36-9.22a69.92,69.92,0,0,1,23.88,3.76,46,46,0,0,1,17.49,11.1,38,38,0,0,1,9.32,17.13,1.83,1.83,0,0,1-1.42,2.24h0a86.79,86.79,0,0,1,25.39-24.83q14.85-9.39,31-9.4,24.44,0,38.92,13.73t14.86,35.54V533.62a1.83,1.83,0,0,1-1.83,1.83h-48.61a1.83,1.83,0,0,1-1.84-1.83V433.9q-.37-10.9-3.38-17.87t-13.81-7.7h-.22a29.46,29.46,0,0,0-21.52,8.84Q8126,426,8121.7,439.73a93.73,93.73,0,0,0-4.33,28.39v65.5a1.83,1.83,0,0,1-1.83,1.83h-49a1.84,1.84,0,0,1-1.84-1.83V433.9q-.37-10.9-3.95-17.87t-14.37-7.7h-.21a27.79,27.79,0,0,0-20.77,8.84,56.67,56.67,0,0,0-12.79,22.38,91.06,91.06,0,0,0-4.32,27.83v66.25a1.84,1.84,0,0,1-1.84,1.83h-49a1.83,1.83,0,0,1-1.83-1.83V372.92a1.83,1.83,0,0,1,1.83-1.83Z" transform="translate(-7476.08 204.27)"/><path class="cls-1" d="M8361.1,540q-30.1,0-51-11.28a77,77,0,0,1-31.78-31.22q-10.92-19.93-10.91-45.88a81.09,81.09,0,0,1,12.79-44.76A93.83,93.83,0,0,1,8314.46,375q21.44-11.83,47.77-11.84,35.34,0,58.11,20.5,20.53,18.51,28.06,51.89a8.12,8.12,0,0,1-5.45,9.54l-113.84,36.16a8.1,8.1,0,0,1-10-4.66l-5.58-13.68a8.1,8.1,0,0,1,4.91-10.74l84.36-28.46-3.36,1.51a8.09,8.09,0,0,1-10.44-3.56,40.48,40.48,0,0,0-7.83-10.17q-7.71-7.33-23.13-7.34a38.27,38.27,0,0,0-20.5,5.46,35.38,35.38,0,0,0-13.54,15.42q-4.71,10-4.7,23.51,0,15.42,5.64,25.76a37.73,37.73,0,0,0,15.42,15.61,45.28,45.28,0,0,0,21.82,5.27,47.51,47.51,0,0,0,16.73-3,85.15,85.15,0,0,0,9.29-4.11,8.14,8.14,0,0,1,10.75,3l14.89,25a8.11,8.11,0,0,1-3.41,11.45,136.35,136.35,0,0,1-20.61,7.93A101.36,101.36,0,0,1,8361.1,540Z" transform="translate(-7476.08 204.27)"/><path class="cls-1" d="M8497.05,238.69h35a8.83,8.83,0,0,1,8.83,8.83v279.1a8.83,8.83,0,0,1-8.83,8.83h-35a8.83,8.83,0,0,1-8.83-8.83V247.52A8.83,8.83,0,0,1,8497.05,238.69Z" transform="translate(-7476.08 204.27)"/><path class="cls-1" d="M8757.35,406.07a79.84,79.84,0,0,0-31.79-31.42q-20.68-11.44-48.89-11.46-27.84,0-49.27,11.46a83.77,83.77,0,0,0-33.3,31.42q-11.84,19.92-11.84,45.12,0,27.85,12,47.78a78.88,78.88,0,0,0,33.28,30.46Q8648.83,540,8675.91,540q29,0,49.65-11.66a80.77,80.77,0,0,0,31.79-31.78q11.08-20.13,11.09-45.34T8757.35,406.07Zm-46.83,68.64a39.58,39.58,0,0,1-13.92,16.36q-9,6-21.44,6a35.72,35.72,0,0,1-20.31-6,42.12,42.12,0,0,1-14.3-16.36,53.9,53.9,0,0,1,0-46.45,42.44,42.44,0,0,1,14.3-16.18,35.86,35.86,0,0,1,20.31-6q12.41,0,21.44,6a39.82,39.82,0,0,1,13.92,16.18,57.71,57.71,0,0,1,0,46.45Z" transform="translate(-7476.08 204.27)"/><path class="cls-1" d="M8715.4,599.61a53.6,53.6,0,0,1-4.88,23.14,39.58,39.58,0,0,1-13.92,16.36q-9,6-21.44,6a35.72,35.72,0,0,1-20.31-6,42.12,42.12,0,0,1-14.3-16.36,53.9,53.9,0,0,1,0-46.45,42.44,42.44,0,0,1,14.3-16.18,35.86,35.86,0,0,1,20.31-6q12.41,0,21.44,6a39.82,39.82,0,0,1,13.92,16.18A53.27,53.27,0,0,1,8715.4,599.61Z" transform="translate(-7476.08 204.27)"/><rect class="cls-2" width="1292.36" height="1292.36"/></g></g></svg>