<svg xmlns="http://www.w3.org/2000/svg" viewBox="0 0 478.33 478.67"><defs><style>.cls-1{fill:#fff;}</style></defs><g id="Layer_2" data-name="Layer 2"><g id="Layer_1-2" data-name="Layer 1"><path class="cls-1" d="M242,246.21a21.7,21.7,0,0,1-8.1,11.3c-4.24,3-9.55,4.19-14.75,4.42-7.24.31-14.86-1.32-20.42-6-3.64-3-6.18-7.12-8.67-11.15-4.85,4.08-9.57,8.63-15.16,11.73q-9.7,5.42-22.63,5.41c-15.44,0-31.26-6.55-35.27-22.91-4.61-18.76,9.77-32.36,26.08-37.91,9.73-3.31,20-4.81,29.57-8.6a34.11,34.11,0,0,0,10-5.76c14.34-12.53,9.11-42.68-7.08-51.27a22,22,0,0,0-6.9-2.32,18.82,18.82,0,0,0-16.61,5.61c-3.18,3.56-4.67,8.27-7,12.46-3.68,6.78-11,11.1-18.52,7.2a10.1,10.1,0,0,1-5.15-11.78c1.38-5.43,6.19-9.41,11-11.76a49.91,49.91,0,0,1,12.4-3.75c20.5-3.94,53.38-4.4,64,18.14a23.3,23.3,0,0,1-.23,19.64c-2.76,6.16-7.56,11.22-13,15.25-8.92,6.63-19.47,10.64-29.16,16.09s-19,13-22.58,23.51c-2.89,8.52-2,19.29,4,26.32a17.3,17.3,0,0,0,13.82,6.43A23.47,23.47,0,0,0,175.53,252a28.06,28.06,0,0,0,9.78-12.21c3.07-7.2,5.09-14.7,7.84-22a46.16,46.16,0,0,1,12.5-18.22c1.28-1.16,3-2.32,4.59-1.7,1.85.7,2.17,3.13,2.19,5.1.13,12.22-.51,24.74,1.09,36.88a19.36,19.36,0,0,0,2.54,8.15,12.5,12.5,0,0,0,12.45,4.95,16.22,16.22,0,0,0,10.94-8.23C240.32,245.22,241.16,245.7,242,246.21Z"/><path class="cls-1" d="M247.52,236.72a21.83,21.83,0,0,1,11.3,8.1c3,4.24,4.19,9.55,4.42,14.76.3,7.24-1.32,14.86-6,20.42-3,3.63-7.11,6.17-11.15,8.66,4.09,4.85,8.63,9.57,11.73,15.16q5.41,9.72,5.41,22.63c0,15.44-6.55,31.27-22.91,35.28-18.76,4.6-32.36-9.78-37.91-26.09-3.3-9.72-4.8-20-8.6-29.57a34.38,34.38,0,0,0-5.75-10c-12.53-14.34-42.68-9.11-51.27,7.08a21.31,21.31,0,0,0-2.32,6.9,18.74,18.74,0,0,0,5.61,16.6c3.55,3.19,8.26,4.68,12.46,7,6.77,3.69,11.1,11,7.19,18.52A10.09,10.09,0,0,1,148,357.27c-5.43-1.38-9.41-6.18-11.76-11a49.71,49.71,0,0,1-3.75-12.39c-3.94-20.51-4.39-53.39,18.15-64,6.3-3,13.34-2.59,19.63.22s11.22,7.57,15.25,13c6.63,8.92,10.65,19.48,16.1,29.17s13,19,23.51,22.57c8.51,2.9,19.28,2,26.32-4A17.32,17.32,0,0,0,257.85,317a23.48,23.48,0,0,0-4.54-13.79,27.94,27.94,0,0,0-12.22-9.78c-7.2-3.08-14.69-5.1-22-7.84a46.25,46.25,0,0,1-18.22-12.51c-1.15-1.27-2.31-3-1.7-4.59.7-1.85,3.13-2.17,5.1-2.19,12.22-.13,24.74.51,36.88-1.09a19.14,19.14,0,0,0,8.15-2.54c3.94-2.61,5.79-7.8,5-12.44a16.27,16.27,0,0,0-8.23-11C246.53,238.4,247,237.56,247.52,236.72Z"/><path class="cls-1" d="M239,230.24a21.76,21.76,0,0,1,8.1-11.31c4.24-3,9.55-4.19,14.75-4.41,7.24-.31,14.86,1.32,20.42,6,3.64,3,6.18,7.12,8.66,11.15,4.86-4.09,9.58-8.63,15.17-11.73q9.71-5.42,22.63-5.41c15.44,0,31.26,6.55,35.27,22.91,4.61,18.76-9.77,32.36-26.09,37.91-9.72,3.31-20,4.81-29.56,8.6a34.3,34.3,0,0,0-10,5.75c-14.34,12.54-9.11,42.68,7.08,51.28a22,22,0,0,0,6.9,2.32,18.79,18.79,0,0,0,16.6-5.61c3.19-3.56,4.68-8.27,7-12.46,3.69-6.78,11-11.11,18.53-7.2a10.11,10.11,0,0,1,5.15,11.78c-1.38,5.43-6.19,9.41-11,11.76a49.91,49.91,0,0,1-12.4,3.75c-20.51,3.94-53.38,4.39-64-18.15-3-6.3-2.59-13.34.23-19.63s7.56-11.22,13-15.25c8.92-6.63,19.47-10.64,29.16-16.09s19-13,22.58-23.51c2.89-8.52,2-19.29-4-26.32a17.32,17.32,0,0,0-13.82-6.43,23.47,23.47,0,0,0-13.79,4.55,28.06,28.06,0,0,0-9.78,12.21c-3.08,7.2-5.09,14.7-7.84,22a46.16,46.16,0,0,1-12.5,18.22c-1.28,1.16-3,2.31-4.6,1.7-1.84-.7-2.16-3.13-2.18-5.1-.13-12.22.51-24.74-1.09-36.88a19.36,19.36,0,0,0-2.54-8.15,12.5,12.5,0,0,0-12.45-5,16.19,16.19,0,0,0-10.94,8.22C240.66,231.23,239.82,230.74,239,230.24Z"/><path class="cls-1" d="M233.46,239.73a21.83,21.83,0,0,1-11.3-8.1c-3-4.25-4.19-9.55-4.42-14.76-.3-7.24,1.32-14.86,6-20.42,3-3.63,7.11-6.17,11.15-8.66-4.09-4.85-8.64-9.58-11.73-15.16q-5.41-9.72-5.41-22.63c0-15.44,6.55-31.27,22.91-35.28,18.76-4.6,32.36,9.78,37.91,26.09,3.3,9.72,4.8,20,8.6,29.57a34.16,34.16,0,0,0,5.75,10c12.53,14.34,42.68,9.11,51.27-7.08a21.56,21.56,0,0,0,2.32-6.9,18.73,18.73,0,0,0-5.61-16.6c-3.55-3.19-8.26-4.68-12.46-7-6.77-3.69-11.1-11-7.19-18.53A10.09,10.09,0,0,1,333,119.18c5.43,1.38,9.41,6.18,11.76,11a50.13,50.13,0,0,1,3.75,12.39c3.94,20.51,4.39,53.39-18.15,64-6.3,3-13.34,2.59-19.63-.22s-11.22-7.57-15.25-13c-6.63-8.92-10.65-19.48-16.1-29.17s-13-19-23.51-22.58c-8.51-2.89-19.29-2-26.32,4a17.35,17.35,0,0,0-6.42,13.82,23.44,23.44,0,0,0,4.54,13.79A27.94,27.94,0,0,0,239.89,183c7.19,3.08,14.69,5.1,22,7.84a46.33,46.33,0,0,1,18.22,12.5c1.15,1.28,2.31,3,1.7,4.6-.7,1.84-3.13,2.16-5.1,2.19-12.22.13-24.74-.51-36.88,1.09a19.14,19.14,0,0,0-8.15,2.54,12.48,12.48,0,0,0-5,12.44A16.27,16.27,0,0,0,235,237.19C234.45,238.05,234,238.89,233.46,239.73Z"/><path class="cls-1" d="M37.24,312.48l-16.79,6.89,0,.11H40.1l1.08,2.62-14,13.78,0,.11,16.79-6.88,1.33,3.22-22.82,9.36-1.68-4.09L36,322.75l-.06-.13-21.2.09L13.1,318.6l22.81-9.36Z"/><path class="cls-1" d="M23.9,290.59l2.36,9.09,7,.51,1,3.86L8.17,301.62l-1-4,21.63-14.81,1,3.92ZM23,299.51l-1.87-7.21-9.55,6.27,0,.1Z"/><path class="cls-1" d="M27.31,273.56l.52,3.79L3.42,280.72l-1.31-9.46c-.69-5,1.78-8.56,6.34-9.19a7.08,7.08,0,0,1,7.62,3.78L25.3,259l.6,4.36-8.7,6.27.72,5.21Zm-12.45,1.72L14.12,270c-.4-2.92-2.24-4.38-5-4S5,268.35,5.35,271.28l.72,5.21Z"/><path class="cls-1" d="M17.94,239.57l.2,9.4,6.71,2.11.09,4L.09,246.69,0,242.55l24.47-9.43.09,4ZM15,248.06l-.16-7.45L4.15,244.52v.1Z"/><path class="cls-1" d="M9.21,229.69l-8.93-2,.2-3.72,8.88,2.85Z"/><path class="cls-1" d="M19.19,214.54c2.47,0,4.24-2.11,4.69-5.36.43-3.09-.86-5.53-3-5.83-1.89-.26-3.26.86-4.42,4L15.5,210c-1.71,4.75-4.28,6.65-7.8,6.16-4.18-.57-6.55-4.64-5.84-9.84S6,198,10.27,198.44l-.5,3.67c-2.49-.1-4.27,1.71-4.68,4.67s.7,5.15,2.94,5.46c1.77.24,3.13-.85,4.24-3.92l.93-2.59c1.79-5,4.13-6.78,7.68-6.29,4.6.63,7,4.65,6.21,10.34-.76,5.52-4,8.81-8.41,8.45Z"/><path class="cls-1" d="M26.55,159.34c7.48,2.38,10.77,8.12,8.62,14.88s-8.18,9.52-15.65,7.13-10.8-8.12-8.63-14.89S19.08,157,26.55,159.34Zm-5.84,18.28c5.47,1.75,9.82,0,11.25-4.43s-1.13-8.36-6.6-10.11-9.84-.06-11.26,4.4S15.22,175.87,20.71,177.62Z"/><path class="cls-1" d="M34.21,149.91c3.18,1.5,6.37.54,8-3s.39-6.64-2.79-8.14l-14.18-6.67,1.62-3.45,14.47,6.81c4.81,2.27,6.59,7.3,4,12.9s-7.65,7.42-12.46,5.16L18.4,146.7,20,143.23Z"/><path class="cls-1" d="M56.07,127.53,38,116.22l-4,6.41-2.79-1.75,10-16,2.8,1.74L40,113,58.1,124.29Z"/><path class="cls-1" d="M65.79,113,46,98.32l2.28-3.07L68.07,110Z"/><path class="cls-1" d="M72.54,103.9,54.15,87.46l2.32-2.59,22.08,2.6.09-.1L65.08,75.24l2.49-2.78L86,88.91l-2.3,2.57L61.58,88.9l-.1.11L75,101.13Z"/><path class="cls-1" d="M99.45,77.14c-5.34,4.62-11.93,3.8-17.11-2.19s-4.92-12.45.39-17c4.15-3.59,9.42-3.85,13.29-.69l-3,2.57a6.48,6.48,0,0,0-8.1.64c-3.57,3.09-3.45,7.55.34,11.94s8.45,5.29,12,2.22c3-2.62,3.44-6.37,1-9.23L98,65l-4.82,4.18-2-2.34,7.68-6.65,1.64,1.9C104.88,67.18,104.5,72.77,99.45,77.14Z"/><path class="cls-1" d="M129.36,47.3l-8.06,4.84L122.8,59l-3.41,2.05-5.07-25.72,3.54-2.13L138.2,49.76l-3.47,2.09ZM120.55,49l6.39-3.84-8.72-7.38-.09,0Z"/><path class="cls-1" d="M136.47,36.77c-3.2-7.13-1.2-13.43,5.09-16.25,5.1-2.29,10.36-.88,13.06,3.54l-3.46,1.56a6.57,6.57,0,0,0-8.23-2C138.84,25.41,137.7,30,140,35.17s6.47,7.4,10.6,5.54c3.14-1.41,4.65-4,4.13-7l3.48-1.57c1.23,5-1.07,9.35-6.25,11.67C145.68,46.61,139.69,43.94,136.47,36.77Z"/><path class="cls-1" d="M162.8,25.44C160.52,18,163.31,12,169.9,10c5.35-1.62,10.39.43,12.51,5.17l-3.63,1.1a6.56,6.56,0,0,0-7.9-3.06c-4.29,1.3-6,5.66-4.34,11.13s5.49,8.16,9.82,6.84c3.29-1,5.12-3.4,5-6.47L185,23.56c.59,5.15-2.24,9.14-7.67,10.79C170.7,36.37,165.08,33,162.8,25.44Z"/><path class="cls-1" d="M208.75,26.86l-15.4,2.79L189,5.38l15.4-2.78L205,5.85,193.32,8,194.6,15l11-2,.56,3.13-11,2,1.36,7.53,11.63-2.1Z"/><path class="cls-1" d="M217.62,19.07c.51,2.42,2.94,3.72,6.21,3.49,3.12-.22,5.24-2,5.08-4.18-.13-1.91-1.51-3-4.85-3.5l-2.72-.37c-5-.69-7.39-2.82-7.64-6.36-.3-4.21,3.19-7.37,8.42-7.74s9,2.33,9.41,6.61l-3.69.27c-.42-2.46-2.55-3.83-5.54-3.62s-4.89,1.75-4.73,4c.12,1.79,1.47,2.89,4.71,3.35l2.73.37c5.22.73,7.48,2.64,7.74,6.22.32,4.64-3.12,7.81-8.84,8.21-5.56.4-9.46-2.12-10-6.48Z"/><path class="cls-1" d="M242.42,18.07c.24,2.45,2.5,4,5.78,4.14s5.43-1.39,5.51-3.59c.08-1.91-1.17-3.16-4.43-4l-2.66-.67c-4.89-1.24-7-3.62-6.9-7.17.17-4.22,4-7,9.24-6.76s8.67,3.31,8.62,7.62l-3.71-.15c-.14-2.49-2.11-4.09-5.1-4.21s-5.06,1.2-5.15,3.45c-.07,1.8,1.15,3,4.31,3.85l2.68.68c5.11,1.3,7.14,3.45,7,7-.19,4.65-4,7.42-9.69,7.19-5.57-.22-9.16-3.16-9.23-7.55Z"/><path class="cls-1" d="M287.46,17.42C286.19,25.16,281,29.26,274,28.11s-10.61-6.69-9.34-14.42S271.1,1.82,278.12,3,288.72,9.68,287.46,17.42Zm-18.94-3.1c-.93,5.66,1.4,9.72,6,10.47s8.11-2.34,9-8-1.39-9.73-6-10.48S269.45,8.64,268.52,14.32Z"/><path class="cls-1" d="M295.34,32.26l-3.67-1.08,7-23.64,9.16,2.69c4.87,1.43,7.07,5.14,5.78,9.55a7.07,7.07,0,0,1-6.58,5.4l2.45,11.23-4.23-1.24-2.14-10.52L298,23.17Zm3.55-12.06L304,21.72c2.83.83,4.92-.25,5.71-2.95s-.47-4.75-3.31-5.59l-5-1.48Z"/><path class="cls-1" d="M315,38.66l8.92-23,3.57,1.39-8.92,23Z"/><path class="cls-1" d="M339.67,49.66l-14.09-6.8,10.72-22.2,14.09,6.81-1.44,3L338.31,25.3l-3.14,6.49,10.08,4.86-1.38,2.86-10.08-4.86-3.33,6.89,10.65,5.14Z"/><path class="cls-1" d="M351.45,48.6c-1,2.25.18,4.73,3,6.47s5.4,1.48,6.57-.39c1-1.62.55-3.32-1.87-5.68l-2-1.9c-3.63-3.51-4.32-6.64-2.43-9.65,2.24-3.58,6.92-4.08,11.37-1.3s5.9,7.18,3.72,10.9l-3.15-2c1.11-2.23.2-4.6-2.34-6.19s-5-1.46-6.19.45c-.95,1.52-.51,3.21,1.84,5.48l2,1.91c3.8,3.67,4.5,6.55,2.59,9.59-2.46,3.94-7.11,4.48-12,1.44s-6.4-7.29-4.27-11.14Z"/><path class="cls-1" d="M441.82,168.33l16.85-6.72-.05-.11-19.6-.18-1-2.64L452.06,145l-.05-.11-16.85,6.72-1.29-3.23,22.9-9.14,1.64,4.11-15.29,14.69.05.13,21.2.11,1.64,4.13-22.89,9.14Z"/><path class="cls-1" d="M454.91,190.36l-2.27-9.12-7-.58-1-3.87,26.08,2.7,1,4L450,198.09l-1-3.93Zm1-8.91,1.79,7.23,9.62-6.18,0-.1Z"/><path class="cls-1" d="M451.33,207.35l-.49-3.79,24.47-3.13,1.21,9.48c.64,5-1.87,8.54-6.43,9.12a7.07,7.07,0,0,1-7.59-3.85l-9.31,6.75-.56-4.37,8.78-6.19-.67-5.22Zm12.48-1.59.68,5.32c.37,2.93,2.2,4.41,5,4s4.17-2.34,3.79-5.27l-.66-5.23Z"/><path class="cls-1" d="M460.38,241.41l-.16-9.4-6.7-2.15-.06-4,24.8,8.5.07,4.14-24.52,9.3-.06-4Zm2.94-8.48.12,7.45,10.76-3.85v-.1Z"/><path class="cls-1" d="M469,251.38l8.91,2.14-.23,3.71-8.86-2.93Z"/><path class="cls-1" d="M458.86,266.45c-2.47,0-4.26,2.06-4.74,5.31-.46,3.09.8,5.54,3,5.87,1.89.28,3.27-.83,4.46-4l.95-2.57c1.76-4.73,4.35-6.61,7.87-6.09,4.17.61,6.5,4.71,5.73,9.9s-4.21,8.27-8.49,7.76l.55-3.67c2.48.13,4.29-1.66,4.72-4.62s-.65-5.16-2.88-5.49c-1.78-.26-3.15.81-4.29,3.88l-1,2.58c-1.84,4.95-4.2,6.74-7.75,6.22-4.6-.68-6.95-4.73-6.11-10.41.81-5.51,4.11-8.77,8.49-8.37Z"/><path class="cls-1" d="M451,321.54c-7.45-2.46-10.69-8.22-8.47-15s8.26-9.44,15.71-7,10.71,8.22,8.48,15S458.39,324,451,321.54Zm6-18.21c-5.45-1.8-9.81-.13-11.28,4.31s1.05,8.37,6.5,10.17,9.82.15,11.29-4.29S462.43,305.13,457,303.33Z"/><path class="cls-1" d="M443.19,330.93c-3.17-1.53-6.37-.61-8.08,2.93s-.45,6.64,2.72,8.17L452,348.84l-1.66,3.44-14.41-7c-4.79-2.31-6.53-7.36-3.84-12.94s7.73-7.35,12.52-5l14.41,7-1.66,3.44Z"/><path class="cls-1" d="M421.09,353.06l18,11.51,4.06-6.37,2.78,1.78-10.18,15.94L433,374.14l4.06-6.35-18-11.5Z"/><path class="cls-1" d="M411.23,367.48l19.64,14.91-2.32,3.05-19.64-14.91Z"/><path class="cls-1" d="M404.39,376.54l18.21,16.62-2.34,2.56-22.05-2.82-.09.1,13.43,12.26L409,408l-18.21-16.62,2.32-2.55,22,2.81.1-.12-13.41-12.24Z"/><path class="cls-1" d="M377.21,403c5.38-4.57,12-3.67,17.08,2.36s4.79,12.49-.57,17c-4.18,3.55-9.45,3.76-13.28.56l3-2.54a6.49,6.49,0,0,0,8.11-.56c3.6-3.05,3.53-7.52-.22-11.93s-8.39-5.39-12-2.35c-3.05,2.59-3.51,6.33-1.13,9.22l.28.33,4.86-4.13,2,2.36-7.74,6.57L376,418C371.68,412.92,372.11,407.34,377.21,403Z"/><path class="cls-1" d="M347,432.56l8.11-4.76-1.43-6.89,3.43-2,4.81,25.77-3.57,2.1L338.19,430l3.49-2.05Zm8.82-1.61-6.42,3.77,8.64,7.47.09-.05Z"/><path class="cls-1" d="M339.8,443c3.13,7.16,1.06,13.43-5.25,16.19-5.12,2.24-10.36.79-13-3.66L325,454a6.55,6.55,0,0,0,8.2,2.11c4.1-1.79,5.29-6.32,3-11.55s-6.4-7.46-10.55-5.64c-3.14,1.37-4.68,4-4.19,7L318,447.46c-1.18-5,1.16-9.33,6.36-11.6C330.68,433.09,336.65,435.81,339.8,443Z"/><path class="cls-1" d="M313.34,454.08c2.2,7.5-.65,13.46-7.26,15.4-5.36,1.57-10.38-.54-12.45-5.29l3.64-1.07a6.56,6.56,0,0,0,7.87,3.14c4.3-1.26,6.05-5.6,4.45-11.08s-5.4-8.21-9.75-6.94c-3.3,1-5.15,3.35-5,6.42l-3.66,1.07c-.53-5.15,2.34-9.11,7.78-10.71C305.56,443.08,311.13,446.54,313.34,454.08Z"/><path class="cls-1" d="M267.39,452.19l15.43-2.62L287,473.88l-15.43,2.62-.55-3.25,11.65-2-1.21-7.11-11,1.88-.53-3.14,11-1.88-1.29-7.54-11.65,2Z"/><path class="cls-1" d="M258.44,459.89c-.49-2.42-2.9-3.74-6.17-3.54s-5.26,1.93-5.13,4.13c.12,1.91,1.49,3,4.82,3.54l2.72.4c5,.74,7.36,2.89,7.58,6.44.26,4.21-3.27,7.34-8.51,7.66s-9-2.42-9.34-6.71l3.7-.23c.39,2.46,2.51,3.86,5.5,3.67s4.91-1.7,4.77-3.95c-.11-1.79-1.44-2.91-4.67-3.4l-2.73-.4c-5.22-.77-7.46-2.71-7.68-6.29-.28-4.64,3.19-7.78,8.92-8.13,5.57-.34,9.44,2.22,9.94,6.59Z"/><path class="cls-1" d="M233.63,460.66c-.22-2.46-2.47-4.05-5.75-4.21-3.12-.16-5.44,1.34-5.55,3.54-.09,1.91,1.14,3.17,4.4,4.05l2.66.7c4.88,1.29,7,3.69,6.82,7.24-.21,4.22-4.06,6.93-9.3,6.67s-8.65-3.39-8.55-7.7l3.7.18c.12,2.49,2.08,4.11,5.06,4.26s5.08-1.15,5.19-3.4c.09-1.79-1.11-3.05-4.27-3.89l-2.67-.7c-5.1-1.35-7.12-3.52-6.94-7.11.23-4.65,4-7.38,9.77-7.1,5.57.28,9.13,3.25,9.15,7.65Z"/><path class="cls-1" d="M188.6,460.84c1.34-7.72,6.57-11.77,13.56-10.55s10.54,6.79,9.19,14.52-6.56,11.79-13.56,10.57S187.25,468.57,188.6,460.84Zm18.9,3.29c1-5.65-1.31-9.72-5.92-10.53s-8.13,2.26-9.11,7.92,1.28,9.74,5.9,10.55S206.51,469.81,207.5,464.13Z"/><path class="cls-1" d="M180.87,445.92l3.66,1.12-7.2,23.58-9.13-2.79c-4.86-1.48-7-5.22-5.68-9.61a7.08,7.08,0,0,1,6.63-5.34l-2.33-11.25,4.21,1.29,2,10.53,5,1.54Zm-3.67,12-5.13-1.57c-2.83-.86-4.92.2-5.75,2.89s.43,4.76,3.25,5.62l5,1.54Z"/><path class="cls-1" d="M161.29,439.32l-9.16,22.9-3.56-1.42,9.16-22.9Z"/><path class="cls-1" d="M136.72,428.07l14,6.95L139.8,457.1l-14-7,1.46-2.95,10.59,5.25L141,446l-10-5,1.41-2.84,10,5,3.39-6.85L135.25,431Z"/><path class="cls-1" d="M124.94,429c1-2.24-.14-4.73-2.9-6.5s-5.39-1.53-6.58.33c-1,1.61-.58,3.32,1.82,5.7l2,1.92c3.6,3.53,4.25,6.67,2.34,9.67-2.28,3.55-7,4-11.39,1.18s-5.82-7.23-3.61-10.92l3.13,2c-1.13,2.22-.24,4.6,2.28,6.21s5,1.51,6.19-.39c1-1.51.55-3.2-1.78-5.5l-2-1.93c-3.76-3.7-4.43-6.58-2.5-9.61,2.5-3.91,7.16-4.41,12-1.32,4.69,3,6.32,7.35,4.15,11.18Z"/><circle class="cls-1" cx="414.15" cy="88.38" r="14"/><circle class="cls-1" cx="65.15" cy="390.38" r="14"/></g></g></svg>