<?xml version="1.0" encoding="UTF-8"?><svg id="Layer_2" xmlns="http://www.w3.org/2000/svg" viewBox="0 0 395.08 483.41"><defs><style>.cls-1{fill:#fff;}.cls-2{fill:none;}</style></defs><g id="Layer_3"><g><polygon class="cls-2" points="155.78 468.65 164.86 468.65 160.32 458.54 155.78 468.65"/><path class="cls-2" d="M256.89,451.58c-3.06,0-5.66,1.1-7.79,3.3-2.13,2.2-3.2,4.92-3.2,8.15s1.06,5.95,3.17,8.15c2.11,2.2,4.72,3.3,7.81,3.3s5.7-1.1,7.82-3.3c2.11-2.2,3.17-4.92,3.17-8.15s-1.07-5.95-3.2-8.15c-2.13-2.2-4.73-3.3-7.79-3.3Z"/><path class="cls-1" d="M206.65,395.66c7.26-.5,14.36-1.56,21.27-3.12,7.32-1.68,14.43-3.93,21.27-6.71v-21.64c-6.76,3.31-13.87,6.01-21.27,7.98-6.86,1.85-13.97,3.1-21.27,3.68-3.18,.27-6.38,.4-9.6,.4-3.95,0-7.84-.19-11.68-.56-7.3-.73-14.43-2.1-21.27-4.07-7.42-2.14-14.53-4.99-21.27-8.48v21.83c6.82,2.91,13.93,5.3,21.27,7.09,6.9,1.68,14.01,2.85,21.27,3.47,3.85,.31,7.75,.48,11.68,.48,3.22,0,6.42-.1,9.6-.33Z"/><polygon class="cls-1" points="164.1 261.64 164.1 82.11 142.83 82.11 142.83 273.93 149.61 270.02 164.1 261.64"/><rect class="cls-1" x="185.36" y="322.11" width="21.29" height="27.02"/><path class="cls-1" d="M82.98,333.81c3.41,5.38,7.17,10.5,11.29,15.32,.58,.71,1.18,1.39,1.79,2.08,2.2,2.52,4.51,4.93,6.9,7.26,6.49,6.38,13.62,12.12,21.27,17.09V143.93c-7.65,4.97-14.78,10.71-21.27,17.09v167.12c-1-1.37-1.93-2.76-2.87-4.2-.37-.6-.77-1.21-1.14-1.83-4.05-6.51-7.48-13.45-10.21-20.73-3.68-9.79-6.09-20.19-7.05-31.02-.02-.08-.02-.17-.02-.23h.02v-82.41c-1.7,2.76-3.31,5.59-4.8,8.5-3.33,6.4-6.15,13.12-8.46,20.06-2.85,8.59-4.86,17.57-5.97,26.82-.67,5.45-1,11-1,16.63,0,3.49,.12,6.96,.37,10.39,1.08,14.47,4.39,28.31,9.6,41.22v.02c1.46,3.66,3.1,7.23,4.86,10.73,1.66,3.31,3.45,6.53,5.38,9.65,.42,.71,.83,1.39,1.29,2.06Z"/><path class="cls-1" d="M289.06,270.14h21.27v63.94l.46,.27c2.54-3.95,4.89-8.02,7.01-12.24,1.68-3.31,3.22-6.69,4.64-10.14,4.53-11.08,7.65-22.87,9.17-35.15,.27-2.2,.5-4.45,.67-6.67,.25-3.43,.37-6.9,.37-10.39,0-5.63-.33-11.18-1-16.63h-.04v-.44c-1.14-9.31-3.22-18.34-6.13-26.98-2.33-6.94-5.2-13.64-8.54-20.02-2.02-3.87-4.22-7.61-6.59-11.23v58.66h-21.27v-84.09c-6.53-6.15-13.64-11.66-21.27-16.42v234.28c7.63-4.76,14.74-10.27,21.27-16.42v-90.33Z"/><polygon class="cls-1" points="196.42 242.99 205.82 248.42 206.65 248.42 206.65 0 185.36 0 185.36 248.42 187.01 248.42 196.42 242.99"/><polygon class="cls-1" points="249.19 273.45 249.19 82.11 227.92 82.11 227.92 261.18 243.22 270.02 249.19 273.45"/><polygon class="cls-1" points="164.1 310.38 185.36 298.12 196.42 291.74 206.65 297.64 227.92 309.93 227.92 349.13 249.19 349.13 249.19 322.19 249.19 322.11 249.19 297.25 227.92 284.98 218.02 279.26 206.65 272.69 202.22 270.14 196.42 266.79 190.6 270.14 185.36 273.17 174.8 279.26 164.1 285.44 142.83 297.72 142.83 322.11 142.83 322.67 142.83 349.13 164.1 349.13 164.1 310.38"/><path class="cls-1" d="M25.69,464.63c0,2.92-.7,5.23-2.09,6.91-1.39,1.69-3.24,2.53-5.54,2.53-2.44,0-4.39-.84-5.85-2.53-1.46-1.68-2.19-3.99-2.19-6.91v-21.25H0v21.61c0,5.61,1.65,10.08,4.95,13.41,3.3,3.34,7.67,5,13.1,5s9.55-1.67,12.77-5c3.22-3.33,4.82-7.81,4.82-13.41v-21.61h-9.96v21.25Z"/><polygon class="cls-1" points="72.48 446.37 72.48 443.38 40.39 443.38 40.39 451.79 58.19 451.79 39.88 479.59 39.88 482.58 72.99 482.58 72.99 474.22 54.94 474.22 72.48 446.37"/><rect class="cls-1" x="77.63" y="443.38" width="9.9" height="39.2"/><polygon class="cls-1" points="114.62 460.35 99.61 443.38 93.42 443.38 93.42 482.58 103.12 482.58 103.12 461.43 112.97 472.42 116.27 472.42 126.12 461.43 126.12 482.58 135.82 482.58 135.82 443.38 129.63 443.38 114.62 460.35"/><path class="cls-1" d="M157.43,443.38l-18.67,39.2h10.73l2.53-5.57h16.61l2.48,5.57h10.73l-18.67-39.2h-5.73Zm-1.65,25.28l4.54-10.11,4.54,10.11h-9.08Z"/><polygon class="cls-1" points="221.45 458.59 206.08 458.59 206.08 443.38 196.17 443.38 196.17 482.58 206.08 482.58 206.08 467.11 221.45 467.11 221.45 482.58 231.4 482.58 231.4 443.38 221.45 443.38 221.45 458.59"/><path class="cls-1" d="M256.89,442.66c-5.81,0-10.76,1.98-14.86,5.93-4.09,3.96-6.14,8.77-6.14,14.44s2.04,10.52,6.11,14.44c4.08,3.92,9.04,5.88,14.88,5.88s10.76-1.96,14.83-5.88c4.07-3.92,6.11-8.74,6.11-14.44s-2.04-10.49-6.11-14.44c-4.08-3.95-9.02-5.93-14.83-5.93Zm7.82,28.53c-2.12,2.2-4.72,3.3-7.82,3.3s-5.7-1.1-7.81-3.3c-2.12-2.2-3.17-4.92-3.17-8.15s1.07-5.95,3.2-8.15c2.13-2.2,4.73-3.3,7.79-3.3s5.66,1.1,7.79,3.3c2.13,2.2,3.2,4.92,3.2,8.15s-1.06,5.95-3.17,8.15Z"/><polygon class="cls-1" points="303.52 460.35 288.51 443.38 282.32 443.38 282.32 482.58 292.01 482.58 292.01 461.43 301.87 472.42 305.17 472.42 315.02 461.43 315.02 482.58 324.72 482.58 324.72 443.38 318.53 443.38 303.52 460.35"/><polygon class="cls-1" points="340.5 467 358.2 467 358.2 459.06 340.5 459.06 340.5 451.89 359.54 451.89 359.54 443.38 330.6 443.38 330.6 482.58 359.85 482.58 359.85 474.07 340.5 474.07 340.5 467"/><path class="cls-1" d="M392.65,463.8c-1.62-1.72-4.13-3.13-7.53-4.23l-7.63-2.42c-1.69-.52-2.53-1.53-2.53-3.04,0-1.07,.4-1.89,1.19-2.48s1.81-.88,3.04-.88c3.16,0,5.11,1.7,5.83,5.11l9.7-1.96c-.62-3.61-2.31-6.39-5.08-8.33-2.77-1.94-6.23-2.91-10.39-2.91-4.4,0-7.98,1.09-10.73,3.28-2.75,2.18-4.13,5.22-4.13,9.1,0,2.99,.86,5.36,2.58,7.09,1.72,1.74,4.18,3.07,7.38,4l7.27,2.11c1.99,.52,2.99,1.58,2.99,3.2,0,1.03-.41,1.86-1.24,2.48s-1.96,.93-3.4,.93c-3.58,0-5.76-1.84-6.55-5.52l-10.16,2.06c.48,3.68,2.25,6.59,5.31,8.74,3.06,2.15,6.76,3.22,11.09,3.22,1.99,0,3.89-.25,5.67-.75s3.42-1.23,4.9-2.19c1.48-.96,2.66-2.27,3.53-3.92s1.32-3.54,1.32-5.67c0-2.96-.81-5.3-2.42-7.02Z"/></g></g></svg>