<?xml version="1.0" encoding="utf-8"?>
<!-- Generator: Adobe Illustrator 25.4.1, SVG Export Plug-In . SVG Version: 6.00 Build 0)  -->
<svg version="1.1" id="Layer_1" xmlns="http://www.w3.org/2000/svg" xmlns:xlink="http://www.w3.org/1999/xlink" x="0px" y="0px"
	 viewBox="0 0 1674.3 257.1" style="enable-background:new 0 0 1674.3 257.1;" xml:space="preserve">
<style type="text/css">
	.st0{fill:#FFFFFF;}
</style>
<g id="Layer_2_00000169520609890708758540000017689338817073498251_">
	<g id="Layer_1-2">
		<path class="st0" d="M65.8,242.1c-3.9-0.5-7.7-1.3-11.5-2.3c-13.7-3.7-25.6-12.6-34.6-25.6c-8.1-12-13-25.8-14.2-40.2
			c-2.4-26.7,5.6-51.8,14.8-77.4c6.9-19.2,14-37.7,26.1-53.8c14.4-19.2,34.1-31.3,54-33.3c24.8-2.5,48.9,12,55.9,33.7
			c1.9,5.2-0.8,10.9-6,12.8c-5.2,1.9-10.9-0.8-12.8-6c-0.1-0.2-0.2-0.5-0.2-0.7c-4.1-12.7-19.5-21.5-34.9-19.9
			c-14.4,1.4-29,10.7-40,25.4c-10.4,13.9-17,30.9-23.3,48.5c-8.4,23.4-15.7,46.2-13.7,68.8c1.7,19.2,13.2,42.5,34.2,48.3
			c47.1,13,103.4-33.6,128.1-79.5c-0.8-5.6-0.1-11.2,2-16.4c2.5-6.3,7.7-11.2,14.2-13.3c5.3-1.7,10.9,1.3,12.5,6.5
			c0.6,1.9,0.6,3.9,0.1,5.8c-1.9,6.5-4.4,12.9-7.3,19.1c3,4.9,8.5,8.9,14.2,13.2c1,0.7,1.9,1.4,2.8,2.1c8.7,6.6,19,15.9,21,29.6
			c1.1,8.5-1.3,17.1-6.6,23.9c-7,9-17.2,14.9-28.5,16.4c-17.5,2.3-34-4.5-47.3-10c-4.1-1.7-6.6-5.9-6.1-10.3
			c-0.9,0.8-1.8,1.6-2.8,2.3C126,234.5,94.4,245.7,65.8,242.1z M170,198.6c0.9,0.1,1.8,0.3,2.6,0.7c11.6,4.8,24.8,10.3,37,8.7
			c6-0.9,11.4-4,15.2-8.7c2.1-2.5,3.1-5.7,2.8-9c-0.7-5-4.8-10.1-13.2-16.4l-2.7-2c-4.5-3.2-8.8-6.7-12.7-10.5
			c-8.6,13.5-18.8,25.9-30.3,37.1C169,198.5,169.5,198.6,170,198.6z"/>
		<path class="st0" d="M84.6,177.1c-1.9-0.3-3.8-0.7-5.6-1.3c-15.6-4.8-26.4-21.4-24.6-37.6c0.9-7,3.8-13.5,8.5-18.8
			c0.2-0.8,0.5-1.5,0.8-2.3c3-7.1,8.8-12.7,16-15.3c11.4-4,25-0.4,34.5,9.1c12,11.9,15.4,31.3,8,46
			C115.1,170.8,100.1,178.8,84.6,177.1z M74.1,142.3c0.2,6.2,4.8,12.6,10.7,14.4c7.1,2.2,16.1-1.8,19.5-8.8c3.4-7,1.8-16.9-4.2-22.9
			c-1.2-1.2-2.5-2.2-4-3c-1.7,2.9-4.6,4.7-7.9,5c-2.1,0.2-4.1,0.8-6,1.9c1.8,4.8-0.4,10.3-5.1,12.5
			C76.3,141.9,75.2,142.2,74.1,142.3L74.1,142.3z"/>
		<path class="st0" d="M271.1,245.3c-1.2-0.1-2.3-0.4-3.4-0.7c-9.4-2.7-16.5-12-17.7-23.1c-0.4-4.4-0.1-8.8,0.8-13.2l-1.7,2.8
			c-2.8,4.8-8.9,6.4-13.7,3.7c-4.8-2.8-6.4-8.9-3.7-13.7c0-0.1,0.1-0.2,0.1-0.2l41.7-70.1c2.8-4.7,9-6.3,13.7-3.4
			c3.9,2.3,5.7,7,4.5,11.4l-19.4,65.8c-1.5,5.1-3.1,10.4-2.6,14.8c0.3,3.1,2,5.6,3.4,6c1.4,0.4,4-0.6,6.1-3
			c2.8-3.3,4.5-8.4,6.1-13.4l21.8-66.8c1.7-5.2,7.4-8.1,12.6-6.4c2.9,0.9,5.2,3.1,6.2,5.9c5.4,14,0.8,28.7-3,38.5
			c-0.8,2-1.6,3.9-2.4,5.8c-3.1,7.5-6.1,14.6-6.4,21.6c-0.3,6.3,2.9,13.7,8,14.8c6.6,1.5,14.3-7.7,18.6-16.8
			c4.4-9.3,7.8-19.1,10.1-29.1c-1.5-0.5-3-1.2-4.4-1.9c-9.2-4.8-15.3-15.4-15.1-26.5c0.2-9.1,4.8-16.7,12.4-20.4
			c1.9-0.9,4-1.1,6-0.8l16.4,2.7c4.7,0.8,8.2,4.8,8.4,9.6c0.2,5.9,0,11.7-0.4,17.6c2.7-0.8,5.3-1.8,7.8-2.9c16.3-7,31.9-17,47-26.6
			c4.7-3,10.8-1.6,13.8,3s1.6,10.8-3,13.8l0,0c-15.8,10.1-32,20.6-50,28.2c-6,2.6-12.3,4.5-18.8,5.6c-2.6,12.5-6.8,24.7-12.2,36.2
			c-7.3,15.3-21.1,30.4-38.5,28.2c-0.8-0.1-1.7-0.2-2.5-0.4c-8.4-1.8-14.6-7.3-18.5-14.1c-1.3,2.6-3,5.1-4.8,7.3
			C288.4,242.6,279.5,246.3,271.1,245.3z M351.6,147.5c0,0.3-0.1,0.7,0,1c0,2.6,1,5.2,2.7,7.1c0.2-2.5,0.4-5.1,0.4-7.6L351.6,147.5z
			"/>
		<path class="st0" d="M410.3,244.7c-4-0.5-7.8-1.8-11.1-4c-8.1-5.2-19.8-18.9-7.2-51.9c5.2-13.8,11.2-29.3,22.7-41.6
			c11.5-12.2,31.5-21.6,50.2-14.7c3.1,1.1,5.5,3.7,6.3,7c1.4,2,2.1,4.5,1.8,6.9c-1.8,16.9-5.8,33.4-12,49.2
			c2.1,9.2,8.4,18,17.1,19.1l0.1,0c3.8,0.4,7.6-0.4,11-2.3c-3.3-14.8,0-31.4,3.5-44.3c10.5-39.2,22.7-78.4,36.3-116.6
			c7.9-22.3,21.1-33.8,36.2-31.9c0.3,0,0.6,0.1,0.9,0.1c10.6,1.7,19.4,10.5,22.5,22.3c2.3,9.2,1,18.2-0.4,26
			c-9.6,51.4-31.9,99.7-64.8,140.3c-2.9,3.6-6,7.1-9.3,10.3c0.3,0.3,0.6,0.6,1,0.9c8,7.4,21.4,6,30.4,1.7
			c11.7-5.6,21-16.1,30.1-26.3c3.5-4.3,9.8-5,14.1-1.5c4.3,3.5,5,9.8,1.5,14.1c-0.2,0.3-0.4,0.5-0.7,0.7
			c-9.9,11.1-21.1,23.7-36.4,31c-15.3,7.3-37.7,8.7-52.6-5c-1.3-1.2-2.5-2.5-3.7-3.8c-6.8,3.5-14.4,4.9-22,4.1l-0.3,0
			c-10.9-1.4-19.5-7.5-25.5-15.6c-4,7.1-9.2,14.8-17,20.1C426.4,243.6,418.3,245.6,410.3,244.7z M449.8,150.2
			c-7.8,0.6-15.6,5.3-20.6,10.7c-8.8,9.4-13.8,22.4-18.6,35c-4.2,11-6.6,24.2-0.6,28c2.8,1.8,7.9,1.2,11.8-1.5
			c5.1-3.5,8.8-9.6,11.9-15.2c2.5-4.6,4.7-9.3,6.8-14.1c-0.1-0.8-0.1-1.6-0.2-2.4C439.7,176.1,444.6,162.2,449.8,150.2z M562.7,39.4
			c-5.5-0.7-11.4,8.9-14.9,18.8c-13.4,37.7-25.5,76.4-35.8,115.1c-2.1,7.2-3.4,14.7-4,22.2c30.7-38,51.5-83.1,60.5-131.2
			c1.1-6,2.1-12.2,0.7-17.4c-1-3.8-3.7-7.1-6.3-7.5L562.7,39.4z"/>
		<path class="st0" d="M605.7,243.6c-8.7-1.3-16.9-5.4-22.1-12.5c-7.6-10.3-7.3-25.2-0.9-36.4s17.8-18.8,30.1-22.6
			c12.3-3.8,25.3-4.2,38.1-3.5c12.9-37.2,25.9-74.3,38.8-111.5c1.2-3.4,2.5-6.9,5.2-9.1c4.9-3.9,13.4-1.2,15.1,4.8
			c1.4,4.9-1,10.2-2.1,15c-1.3,5.5-2.7,11-4.1,16.6c-2.8,11.2-5.8,22.5-9,33.6c-9.1,31-20.1,61.3-25.9,93.1c-0.5,2.6-0.9,5.4,0,7.9
			c1.1,3,4,4.2,7.1,3.9c2.3-0.3,4.4-1.3,6.3-2.6c5.5-3.7,9.5-9.4,12.7-15.2c3.5-6.4,6.1-17.5,13.7-20c4.7-1.5,10.4,1.5,11.8,6.3
			c1.1,3.7-0.2,7.6-1.7,11.1c-4,9.9-9.4,19.4-17,27c-7.6,7.5-17.6,12.9-28.3,13.6s-21.9-3.8-28-12.5c-9.1,7.1-19.9,12.5-31.4,13.4
			C611.4,244.1,608.5,244,605.7,243.6z M644.9,190.6c0.1-1.3,0.1-2.9-1.4-3.1c-1.4-0.2-2.8,0.2-4.2,0.4c-1.7,0.2-3.4,0.5-5.1,0.7
			c-3.5,0.4-7,0.9-10.4,1.5c-5.8,1.1-11.5,3-16.4,6.4c-4.8,3.4-9.1,9-9.6,15.1c-0.5,5.7,3.3,10.9,8.9,12.2c3.9,0.9,7.9,0.1,11.7-1
			c8.7-2.6,17.2-7.6,21.7-15.5c1.9-3.2,3-6.8,3.7-10.5C644,195.9,644.8,193,644.9,190.6z"/>
		<path class="st0" d="M822,247.8l-1.1-0.2c-12.8-2.1-23.7-12.5-27.7-26.6c-2.8-9.8-2.4-21,1.3-34.2c1.1-4,4.5-6.9,8.6-7.3l7.1-0.7
			c5.5-0.4,10.3,3.7,10.7,9.2c0.4,5.3-3.4,10-8.7,10.7c-1.2,6.6-1.1,12.1,0.2,16.8c1.8,6.4,6.6,11.5,11.7,12.3
			c6.3,1,12.9-4,16.4-9.1c4.8-7.1,6.9-16.6,8.9-25.7l25.7-118.7c-13.7,1.4-26.5,3-36.9,9.3c-4.7,2.9-9.8,7.7-9.9,12.9
			c0.1,1.5,0.8,2.9,1.9,3.8c0.5,0.6,1.2,0.9,2,1.1c5-2.3,11-0.2,13.3,4.8c2.3,5,0.2,11-4.8,13.3c-0.2,0.1-0.4,0.2-0.6,0.3
			c-6.5,2.8-13.9,2-20.2-2.3c-7.1-4.8-11.4-12.8-11.6-21.3c0.1-11.4,7.5-22.5,19.5-29.8c15.4-9.2,33.4-10.9,49.4-12.4l2.3-0.2l0.1,0
			l6.1-28.3c0.2-0.9,0.5-1.8,1-2.7c3.9-7,11.3-10.9,20-10.4c9.6,0.6,18.2,6.5,21.5,14.8c5.8,14.6-2.9,30.1-14,37.4
			c-5.5,3.5-11.6,5.9-18,7.1l-27.3,125.6c-2.3,10.5-4.8,22.3-11.8,32.7C848.6,242.6,834.9,249.5,822,247.8z M904.7,32.5l-3.6,16.7
			c0.7-0.4,1.5-0.8,2.1-1.2c4.5-2.9,8.1-8.9,6.4-13.2c-0.6-0.9-1.5-1.6-2.5-1.9C906.3,32.5,905.5,32.4,904.7,32.5z"/>
		<path class="st0" d="M920.4,245.2c-1.1-0.2-2.2-0.5-3.3-0.8c-11.5-3.6-20.4-14.8-22.5-28.5c-1.8-11.1,0.7-21.8,3.2-31
			c1.7-6.5,3.6-13,5.7-19.4c-11.1,0.3-22.2-1.3-32.8-4.6c-1.7-0.5-3.4-1.1-5.1-1.7c-4.5-1.5-8.7-3-12.7-3.3c-4-0.4-7.8,0.8-9.2,2.8
			c-0.2,0.6-0.3,1.2-0.1,1.8c5.2,1.8,8,7.5,6.2,12.7c-1.7,4.9-6.9,7.7-11.9,6.5c-6-1.6-10.9-6.1-13-11.9c-2.6-6.7-1.8-14.2,2.1-20.2
			c5.5-8.1,16-12.5,27.5-11.5c6.4,0.6,12.2,2.6,17.4,4.3c1.5,0.5,3.1,1,4.6,1.5c11,3.4,22.6,4.5,34,3.2
			c9.2-23.8,20.7-46.6,34.3-68.1c4.2-6.6,8.8-13.5,15.9-18.6c9.1-6.6,20.4-8.2,29.5-4.3c9.6,4.2,16.2,14.4,16.7,26
			c0.5,10.3-3.4,19.5-6.4,25.5c-11.1,22.3-30.7,40.3-55.2,50.7c-6.5,2.8-13.2,4.9-20.1,6.5c-3.2,9-6,18-8.4,27.2
			c-2,7.5-3.9,15.5-2.8,22.7c1,6.1,4.6,11.2,8.8,12.5c5.3,1.6,11.9-1.4,20.2-9.5c-4.7-2.5-8.5-6.4-11-11.1c-2.5-5-2.9-10.8-1.1-16.1
			c1.5-4.6,4.8-8.3,9.1-10.5c1.7-0.8,3.7-1.1,5.6-0.9c1.1,0.1,2.2,0.4,3.2,0.9c0.4-0.2,0.9-0.4,1.4-0.5c6.1-2.1,12.9-1,17.9,3
			c6,4.8,8.8,13.1,7.5,21.3c4.3-0.7,8.6-2.1,12.4-4.2c2.1-6.6,5.3-12.8,9.4-18.3c-0.1-2.9,0.1-5.8,0.9-8.5c2-8.3,7.6-15.3,15.2-19.1
			c13.3-6.3,30.5-1.8,40.1,10.5c2.2,2.8,3.9,5.9,5.2,9.2c8.1-4.7,16-9.8,23.7-15.3l3.9-3.2c0.5-0.5,1.1-0.9,1.6-1.3
			c4.5-3.5,11.1-2.5,14.4,2.3c2.4,3.6,2.1,8.3-0.4,11.8c-5,6.9-9.6,14.3-12.2,22.5c-1.1,3.5-1.9,7.2-2.1,10.9
			c-0.3,3.4-1.3,6.8-0.1,10c0.7,1.9,1.2,2.5,3.1,2.9c3.6,0.8,6.5-0.2,9-2.9c4.1-4.4,4.7-11.8,6.7-17.3c0,0,14.4-39,14.4-39
			c2-5.4,8.1-8,13.4-5.7c8.5,3.8,5.1,16.2,2.8,22.8c-4.8,13.5-12.1,25.3-13.6,39.9c-0.1,0.8-0.2,1.7,0.1,2.4
			c1.6,5.5,7.5,2.5,10.1,0.2c3.6-3.1,6.4-7.2,8.8-11.3c3.2-5.6,7-11.7,9.2-17.6c2.4-6.3,5-12.5,8.3-18.4c3.5-6.4,7.6-14.4,13.5-19
			c5.4-4.2,13.3-5.6,19.5-2.4c2.8,1.4,5.2,3.7,6.8,6.5c2.1-2.4,4.5-4.5,7.1-6.2c9.1-5.9,20.8-5.7,28.3,0.6
			c8.6,7.1,10.1,18.9,4.6,34.8l-12.7,36.7c-0.6,1.9-2.3,6.8-1.6,8.3c0.7,0.7,4.3,0.9,6.6-1c4.1-3.4,6.1-9.9,8.2-17.4
			c1.6-5.3,7.3-8.2,12.5-6.6c5,1.6,7.9,6.6,6.8,11.7c-2.3,8.3-5.5,19.8-14.6,27.5c-6.4,5.2-14.7,7.2-22.8,5.5
			c-6.4-1.2-11.9-5.4-14.7-11.3c-4.2-8.9-1-18.3,0.8-23.4l12.6-36.7c3.8-10.9,1.5-12.9,1.4-12.9c-0.4-0.4-2.6-0.4-4.6,0.8
			c-2.8,1.9-5.1,5.3-7.7,9.9c-7.8,14-13.6,29-17.3,44.5c-0.6,3.2-1.3,6.3-1.9,9.5c-1.1,5.3-6.3,8.8-11.7,7.7
			c-5.3-1-8.9-6.2-7.9-11.5c0.6-3.3,1.3-6.7,2-10c2.7-13.1,5.2-26.5,7.7-39.8c0.1-0.5-0.6-0.8-0.9-0.3c-1.2,2.2-2.3,4.4-3.2,6.8
			c-1.4,3.6-3.7,7.3-5,11c-5.2,14.1-11.6,27-23,37.1c-5,4.4-10.6,8.2-17.1,9.9c-9,2.3-18.7-0.3-24.4-7.9c-8.6,5.8-17.3,7.3-24.9,4
			c-9-3.8-14.3-13.4-14.7-26.4c-0.2-5.5,0.3-11.1,1.5-16.5c-2.5,1.4-5,2.8-7.5,4.2c-0.3,2.8-0.9,5.5-1.7,8.1
			c-3.3,10.8-10.3,20.9-20.7,29.9c-13.4,11.6-28.1,14.7-39.4,8.3c-7.6-4.2-11.7-11.4-13.3-19.3c-7.1,2.1-14.5,2.9-21.9,2.2l-0.9,1
			C958.1,229.7,940.9,249.2,920.4,245.2z M1006.1,209.8c-0.5,5.1,0.6,10.3,3.6,12c4,2.3,11.4-1.5,16.6-6c4.2-3.5,7.8-7.6,10.7-12.2
			c-2.2,0.5-4.5,0.9-6.8,1.1c-5.5,0.4-11-0.4-16.1-2.6C1011.7,204.8,1009,207.4,1006.1,209.8z M955.3,199.5l0.5,0.2
			c0.1-0.3,0.1-0.6,0.2-0.9C955.8,199.1,955.6,199.3,955.3,199.5z M1025.7,168.9c1.3,2.2,1.7,4.7,1.2,7.2c-0.6,2.8-1.4,5.6-2.4,8.3
			c1.4,0.3,2.8,0.3,4.2,0.2c4.2-0.3,8.4-1.9,12.6-3.8c-0.6-2.3-1.7-4.4-3.1-6.3C1035.1,170.7,1030.5,168.6,1025.7,168.9z
			 M981.3,72.1c-2.5-0.5-5.9,0.5-8.7,2.5c-4.2,3-7.5,7.9-10.7,13.1c-10.4,16.5-19.5,33.7-27.2,51.6c20.5-7.9,38.4-22.9,48.2-42.6
			c3.2-6.4,4.5-11.3,4.3-15.6c-0.2-3.9-2.2-7.6-4.8-8.7C982.1,72.2,981.7,72.1,981.3,72.1z"/>
		<path class="st0" d="M1274.8,247c-9.1-0.9-17.5-5.5-23-12.8c-6.7-8.7-9.2-20.6-6.9-32.7c1.7-9,5.8-18,12.7-27.4
			c7.7-10.6,15.9-17.3,25-20.2c5.4-1.7,11.1-1.8,16.6-0.5c5.9-26,12.6-51.9,20.1-77.5c1.5-5.3,7.1-8.3,12.4-6.8
			c4.5,1.3,7.5,5.6,7.2,10.3c-2.2,32-7,63.7-14.4,94.9c-2.8,11.7-6.7,26.7-12.6,41.4c0.2,0.2,0.4,0.4,0.6,0.6
			c1.2,0.9,3.5,2.4,5.1,2.1c3.2-0.5,8.1-4.3,11.5-9c2.2-3.1,4.4-6.2,6.9-9.1c-0.9-33.7,25-64.8,58.6-67.1c9.3-0.7,17.4,1,24,4.9
			c9,5.3,14.6,15.1,14,24.6c-0.5,8.2-5.1,16-12.8,21.5c-5.8,4.2-12.3,6.3-18,8.2c-2.7,0.9-5.5,1.8-8.2,2.8
			c-5.6,1.9-11.2,3.7-16.8,5.6c-2.8,0.9-5.6,1.9-8.4,2.8c-1.4,0.5-2.8,1-4.3,1.4c-1,0.3-1.9,0.8-2.9,1.2c-0.7,0.3-1.4,0.8-1.8,1.4
			c-0.5,0.7-0.8,1.6-0.7,2.4c0.1,0.9,0.8,1.8,1.4,2.4c0.8,0.9,1.3,2,2.1,2.8c0.7,0.7,1.5,1.4,2.3,1.9c0.9,0.6,1.8,1.1,2.8,1.6
			c4.7,2.1,10.1,2.5,15.2,1.8c1.3-0.2,2.6-0.4,3.9-0.8c9.9-2.6,18.8-8.9,28.7-16.3c8.2-6.1,15.5-13.3,21.8-21.3l5.5-75
			c0.7-9.6,1.6-21.5,8.1-31.8c7.4-11.7,23.4-19.4,37.2-12.2c9,4.7,14.6,15.2,14.4,26.7c-0.2,8.8-3.4,16.6-6.7,23.8
			c-2.2,4.8-4.4,9.7-6.5,14.5c-2,4.6-4,9.1-6.1,13.5c5.6,2.8,10.1,7.4,12.7,13.1c5.2,11.5,1.9,26-7.8,34.5c-2.4,2.1-5.2,3.8-8.1,5
			c0.1,2,0,4-0.1,5.7c-0.1,1.5-0.2,2.9-0.3,4.4c-0.3,4.1-0.7,7.9,0,11.1c1.4,7.2,9.9,13,17.3,11.7c7.3-1.3,13.2-9.8,12-17.1
			c-0.9-5.5,2.8-10.6,8.3-11.5c5.4-0.9,10.5,2.8,11.4,8.1c3,18-10.2,36.7-28.1,40c-17.9,3.3-36.9-9.5-40.5-27.5
			c-1.2-6-0.7-11.7-0.3-16.7c0.1-1.3,0.2-2.6,0.3-3.9c0.1-1.1,0.1-2.1,0.1-3c-0.6-0.2-1.3-0.3-1.9-0.5l-5.1,44.2
			c-0.6,5.4-5.4,9.3-10.8,8.8l-0.1,0c-5.4-0.5-9.4-5.3-9-10.7l1.8-24.2c-2.4,2.1-4.9,4-7.5,6c-11.1,8.3-22.2,16-35.5,19.6
			c-17,4.6-34,0.5-44.3-10.5c-1.3-1.4-2.5-2.9-3.6-4.5c-0.6-1-2-1-2.7-0.1c-5.1,6.5-11.5,12.8-20.4,14.2c-6.1,1-12.2-0.6-18.3-4.6
			c-4,5.3-9.3,10-16.4,12.3C1282.3,246.9,1278.5,247.3,1274.8,247z M1292.2,172.3c-1.3-0.1-2.6,0-3.9,0.3c-5,1.6-9.9,6-15.1,13
			c-5.1,7.1-8.1,13.3-9.3,19.3c-1.2,6.4-0.1,12.7,3.2,16.9c2.9,3.8,8.2,5.9,12.1,4.7c3.6-1.1,7-5,10.3-11.5
			c-1.2-5.9-1-12.9,0.5-20.9c1.3-6.7,2.7-13.8,4.3-21.5C1293.7,172.5,1293,172.4,1292.2,172.3z M1401,150.9c-1.8-0.1-3.6,0-5.4,0.2
			c-20.2,2.1-36.7,17.2-40.5,37.2l41-15.3c5.1-1.9,9.9-3.7,13.5-6.5c2.7-2.1,4.4-4.8,4.5-6.9c0-2.2-2-5.1-4.8-6.6
			C1406.6,151.7,1403.8,151,1401,150.9z M1467.8,170.4c1.8,1.2,3.5,2.7,4.9,4.5c0.5-0.3,0.9-0.6,1.3-0.9c3.1-2.7,4.4-7.8,2.8-11.2
			c-0.7-1.4-1.8-2.5-3.1-3.3C1471.8,163.1,1469.8,166.8,1467.8,170.4z M1476.4,80.1c-3-0.3-7.3,2.1-9.6,5.7
			c-3.8,6-4.5,14.8-5.1,22.5l-2.4,32.3c0.5-0.2,1-0.4,1.6-0.6c3.1-6.6,6.1-13.4,9.1-20.2c2.1-4.8,4.3-9.7,6.6-14.7
			c2.5-5.5,4.8-10.9,4.9-16c0.1-3.8-1.5-7.4-3.7-8.5C1477.4,80.3,1476.9,80.1,1476.4,80.1z"/>
		<path class="st0" d="M1526.7,244.1c-3.2-0.4-6.2-1.5-9-3.1c-13.6-8.4-12.2-26.3-11.7-33c0.6-8.1,1.3-17.2,5-25.9
			c3.1-7.7,8.8-14,16.1-18c6.1-6.4,16.2-8.7,25-5.5c5,1.9,9.3,5.2,12.5,9.5c0.2-0.4,0.4-0.9,0.6-1.3c2.2-5.1,4.9-10.9,9.2-16.1
			c5.8-6.9,16.3-12.2,26.5-8.1c3.2,1.2,6.1,3.3,8.3,5.9c5.7-5.7,13-8.7,20.3-8.2c14,1.1,22.9,14.5,23.3,26.9c0.4,11-4.1,20.1-8,28.1
			c-2.1,3.9-3.8,8-5.1,12.1c-1.1,3.9-1.1,7.5,0,10.1c0.8,2,2.6,3.7,4.1,3.9l0,0c1.8,0.2,4.4-1.5,6.2-3.9c2.5-3.5,3.9-8.7,5.3-13.6
			c1.4-5.3,6.8-8.6,12.2-7.2c5.3,1.4,8.6,6.8,7.2,12.2c0,0.1-0.1,0.2-0.1,0.3c-1.7,6.3-3.7,13.5-8.3,19.9
			c-6,8.5-15.5,13.1-24.6,12.2l-0.5,0c-8.8-1.1-16.7-7.5-20.2-16.3c-2.7-6.8-2.9-14.7-0.7-22.9c1.7-5.4,3.8-10.7,6.5-15.7
			c3.3-6.7,6.2-12.6,6-18.5c-0.1-4-2.8-7.6-4.8-7.7c-1.6-0.1-3.8,1.2-5.4,3.3c-3.8,4.8-6.7,11.2-8.9,18.1l-6.8,46.8
			c-0.5,5.5-5.4,9.5-10.9,9c-5.5-0.5-9.5-5.4-9-10.9c0.8-15.5,2.4-33.4,7.1-49.3l0.5-3.3c1.3-9-0.3-12.5-0.9-12.8
			c-1.6,0.3-3,1.1-3.9,2.4c-2.6,3-4.3,7.1-6.3,11.4c-2.7,6.1-5.8,13.1-11.9,19c-0.5,0.5-0.9,0.9-1.4,1.3c-1.6,8.7-5.6,16.7-8.8,23.2
			c-3.1,6.1-6.9,13.7-13.7,19.3C1541.7,242.6,1534.2,244.9,1526.7,244.1z M1527.6,195.8c-0.9,4.5-1.4,9.1-1.6,13.7
			c-0.8,10.9,1.1,13.8,2.2,14.5c1.2,0.7,4.3,0.2,6.7-1.8c3.5-2.9,6.1-8,8.6-12.9c0.9-1.7,1.7-3.4,2.5-5.1
			C1539,203.9,1532.4,200.9,1527.6,195.8L1527.6,195.8z M1550.1,183.1c0,0.3,0,0.6,0,0.9l0.3-0.1L1550.1,183.1z"/>
	</g>
</g>
</svg>
